Neil Young performs solo at BBC studios early '70's

General
Complete name                    : C:Documents and SettingsMynameisurlzDesktopNeil Young Sings Neil Young BBCNeil Young Sings Neil Young  BBC [Ehhhhtozebec].avi
Format                           : AVI
Format/Info                      : Audio Video Interleave
File size                        : 307 MiB
Duration                         : 32mn 0s
Overall bit rate                 : 1 342 Kbps

Video
ID                               : 0
Format                           : MPEG-4 Visual
Format settings, BVOP            : No
Format settings, QPel            : No
Format settings, GMC             : No warppoints
Format settings, Matrix          : Default (H.263)
Codec ID                         : DIVX
Codec ID/Info                    : Project Mayo
Codec ID/Hint                    : DivX 4
Duration                         : 32mn 0s
Bit rate                         : 1 200 Kbps
Width                            : 704 pixels
Height                           : 480 pixels
Display aspect ratio             : 1.467
Frame rate                       : 29.970 fps
Resolution                       : 8 bits
Colorimetry                      : 4:2:0
Scan type                        : Progressive
Bits/(Pixel*Frame)               : 0.119
Stream size                      : 275 MiB (89%)
Writing library                  : avc2.0.11.1110

Audio
ID                               : 1
Format                           : MPEG Audio
Format version                   : Version 1
Format profile                   : Layer 3
Mode                             : Joint stereo
Format_Settings_ModeExtension    : MS Stereo
Codec ID                         : 55
Codec ID/Hint                    : MP3
Duration                         : 32mn 0s
Bit rate mode                    : Constant
Bit rate                         : 128 Kbps
Channel(s)                       : 2 channels
Sampling rate                    : 48.0 KHz
Stream size                      : 29.3 MiB (10%)
Alignment                        : Aligned on interleaves
Interleave, duration             : 24 ms (0.72 video frame)

